<svg width="420" height="120" viewBox="0 0 420 120" fill="none" xmlns="http://www.w3.org/2000/svg">
  <rect x="6" y="6" width="108" height="108" rx="30" fill="#7C3AED"/>
  <path d="M35 35H85C92.732 35 99 41.268 99 49V76C99 83.732 92.732 90 85 90H35C27.268 90 21 83.732 21 76V49C21 41.268 27.268 35 35 35Z" fill="white" fill-opacity="0.16"/>
  <path d="M42 27H78C84.6274 27 90 32.3726 90 39V45H30V39C30 32.3726 35.3726 27 42 27Z" fill="white"/>
  <path d="M32 48H88C93.5228 48 98 52.4772 98 58V76C98 81.5228 93.5228 86 88 86H32C26.4772 86 22 81.5228 22 76V58C22 52.4772 26.4772 48 32 48Z" fill="white"/>
  <path d="M40 66H80V98H40V66Z" fill="#F59E0B"/>
  <path d="M49 76H71" stroke="white" stroke-width="5" stroke-linecap="round"/>
  <circle cx="85" cy="59" r="4" fill="#7C3AED"/>
  <text x="132" y="68" fill="#111827" font-size="44" font-weight="900" font-family="Cairo, Tahoma, Arial, sans-serif">اطبعلي</text>
  <text x="134" y="93" fill="#6B7280" font-size="17" font-weight="600" font-family="Cairo, Tahoma, Arial, sans-serif">فكرتك تصير حقيقة</text>
</svg>
